<?xml version="1.0" encoding="UTF-8" standalone="no"?>
<!DOCTYPE svg PUBLIC "-//W3C//DTD SVG 1.1//EN" "http://www.w3.org/Graphics/SVG/1.1/DTD/svg11.dtd">
<svg width="100%" height="100%" viewBox="0 0 1000 1000" version="1.1" xmlns="http://www.w3.org/2000/svg" xmlns:xlink="http://www.w3.org/1999/xlink" xml:space="preserve" xmlns:serif="http://www.serif.com/" style="fill-rule:evenodd;clip-rule:evenodd;stroke-linejoin:round;stroke-miterlimit:2;">
    <g transform="matrix(1,0,0,1,-873.488,-276.728)">
        <g id="icon.svg" transform="matrix(1,0,0,1,1373.49,776.728)">
            <g transform="matrix(1,0,0,1,-500,-500)">
                <path d="M961.62,293.9L961.62,706.1C961.62,847.125 847.125,961.62 706.1,961.62L293.9,961.62C152.875,961.62 38.38,847.125 38.38,706.1L38.38,293.9C38.38,152.875 152.875,38.38 293.9,38.38L706.1,38.38C847.125,38.38 961.62,152.875 961.62,293.9Z" style="fill:url(#_Radial1);"/>
                <g transform="matrix(13.5606,0,0,13.5606,220.993,330.514)">
                    <path d="M0,24.497L7.603,5.045C8.674,2.304 11.316,0.5 14.259,0.5L18.843,0.5L11.24,19.952C10.169,22.693 7.527,24.497 4.583,24.497L0,24.497Z" style="fill:white;fill-rule:nonzero;"/>
                    <path d="M11.153,24.497L18.756,5.045C19.827,2.304 22.469,0.5 25.412,0.5L29.996,0.5L22.393,19.952C21.322,22.693 18.68,24.497 15.737,24.497L11.153,24.497Z" style="fill:white;fill-rule:nonzero;"/>
                    <path d="M22.307,24.497L29.91,5.045C30.981,2.304 33.623,0.5 36.566,0.5L41.15,0.5L33.547,19.952C32.476,22.693 29.834,24.497 26.891,24.497L22.307,24.497Z" style="fill:white;fill-rule:nonzero;"/>
                </g>
            </g>
        </g>
    </g>
    <defs>
        <radialGradient id="_Radial1" cx="0" cy="0" r="1" gradientUnits="userSpaceOnUse" gradientTransform="matrix(1225.76,0,0,1225.76,970.38,921.11)"><stop offset="0" style="stop-color:rgb(189,150,100);stop-opacity:1"/><stop offset="0.03" style="stop-color:rgb(189,150,100);stop-opacity:1"/><stop offset="0.12" style="stop-color:rgb(149,131,106);stop-opacity:1"/><stop offset="0.23" style="stop-color:rgb(108,111,113);stop-opacity:1"/><stop offset="0.31" style="stop-color:rgb(82,99,117);stop-opacity:1"/><stop offset="0.36" style="stop-color:rgb(73,95,119);stop-opacity:1"/><stop offset="0.42" style="stop-color:rgb(63,82,103);stop-opacity:1"/><stop offset="0.54" style="stop-color:rgb(39,50,63);stop-opacity:1"/><stop offset="0.61" style="stop-color:rgb(23,29,37);stop-opacity:1"/><stop offset="1" style="stop-color:rgb(23,29,37);stop-opacity:1"/></radialGradient>
    </defs>
</svg>
